<?xml version="1.0" encoding="utf-8"?>
<!-- Generator: Adobe Illustrator 17.1.0, SVG Export Plug-In . SVG Version: 6.00 Build 0)  -->
<!DOCTYPE svg PUBLIC "-//W3C//DTD SVG 1.1//EN" "http://www.w3.org/Graphics/SVG/1.1/DTD/svg11.dtd">
<svg version="1.1" id="Calque_1" xmlns="http://www.w3.org/2000/svg" xmlns:xlink="http://www.w3.org/1999/xlink" x="0px" y="0px"
	 viewBox="0 0 75 75" enable-background="new 0 0 75 75" xml:space="preserve">
<g>
	<polyline fill="#FDFDFD" points="6.6,75 34.7,75 34.7,47.5 6.6,47.5 	"/>
	<polyline fill="#FDFDFD" points="40.3,75 68.4,75 68.4,47.5 40.3,47.5 	"/>
	<g>
		<rect x="40.3" y="25.2" fill="#FDFDFD" width="33.8" height="15.7"/>
		<path fill="#FDFDFD" d="M40.3,31.3v-5.1c0-2.2,0-13.4,0.4-15.8C41.7,3.7,48.3,0,54.2,0c2.6,0,4.9,0.7,6.6,2
			c3.9,2.9,4.5,6.1,4.3,8.3c-0.6,7.5-11,13.8-19.9,18.4L40.3,31.3z M54.1,6.3c-3.1,0-6.9,1.9-7.3,4.9c-0.2,1.1-0.3,5.5-0.3,9.8
			c10.4-5.9,12.3-9.4,12.3-11.1c0-0.3,0.1-1.4-1.9-2.9C56.4,6.5,55.3,6.3,54.1,6.3z"/>
	</g>
	<g>
		<rect x="0.9" y="25.2" fill="#FDFDFD" width="33.8" height="15.7"/>
		<path fill="#FDFDFD" d="M34.7,31.3l-4.8-2.5C21,24.1,10.6,17.8,10,10.4C9.8,8.2,10.4,5,14.3,2.1c1.8-1.3,4-2,6.6-2
			c5.8,0,12.5,3.6,13.4,10.3c0.3,2.6,0.4,13.6,0.4,15.8L34.7,31.3z M20.9,6.3c-1.2,0-2.2,0.3-2.9,0.8c-2,1.5-1.9,2.6-1.9,2.9
			c0.2,1.7,2,5.2,12.4,11.1c-0.1-4.3-0.2-8.7-0.3-9.8C27.8,8.1,24.1,6.3,20.9,6.3z"/>
	</g>
</g>
</svg>
