<?xml version="1.0" encoding="utf-8"?>
<!-- Generator: Adobe Illustrator 17.1.0, SVG Export Plug-In . SVG Version: 6.00 Build 0)  -->
<!DOCTYPE svg PUBLIC "-//W3C//DTD SVG 1.1//EN" "http://www.w3.org/Graphics/SVG/1.1/DTD/svg11.dtd">
<svg version="1.1" id="Calque_1" xmlns="http://www.w3.org/2000/svg" xmlns:xlink="http://www.w3.org/1999/xlink" x="0px" y="0px"
	 viewBox="0 0 250 126" enable-background="new 0 0 250 126" xml:space="preserve">
<path fill="#FDFDFD" d="M50,24.4c0-4-0.7-7.6-2.2-10.7c-1.5-3.1-3.4-5.6-5.8-7.7c-2.4-2-5.1-3.5-8-4.6c-3-1-6-1.5-9-1.5
	c-3,0-6,0.5-9,1.5c-3,1-5.7,2.6-8,4.6c-2.4,2-4.3,4.6-5.8,7.7C0.7,16.9,0,20.4,0,24.4l0,39.5h14.9V24.4c0-3.5,1-6,3-7.7
	c2-1.6,4.4-2.5,7.1-2.5c2.7,0,5.1,0.8,7.1,2.5c2,1.6,3,4.2,3,7.7v44.9c0,3.5-1,6-3,7.7c-2,1.6-4.4,2.5-7.1,2.5
	c-2.7,0-5.1-0.8-7.1-2.5c-0.1-0.1-0.2-0.2-0.3-0.4l0,24.2h14.9v-8.2c0.5-0.1,1-0.3,1.5-0.5c3-1,5.7-2.6,8-4.6c2.4-2,4.3-4.6,5.8-7.7
	c1.5-3.1,2.2-6.6,2.2-10.7L50,24.4z"/>
<rect x="17.6" y="111.1" fill="#FDFDFD" width="14.9" height="14.9"/>
<polyline fill="#FDFDFD" points="170.1,108.8 203.1,108.8 203.1,76.5 170.1,76.5 "/>
<polyline fill="#FDFDFD" points="209.7,108.8 242.7,108.8 242.7,76.5 209.7,76.5 "/>
<g>
	<rect x="209.7" y="50.4" fill="#FDFDFD" width="39.7" height="18.5"/>
	<path fill="#FDFDFD" d="M209.7,57.5l0-6c0-2.6,0-15.7,0.5-18.6c1.1-7.8,8.9-12.1,15.8-12.1c3,0,5.7,0.8,7.8,2.4
		c4.6,3.4,5.3,7.2,5.1,9.8c-0.7,8.8-12.9,16.2-23.4,21.6L209.7,57.5z M225.9,28.1c-3.7,0-8.1,2.2-8.6,5.8c-0.2,1.3-0.3,6.5-0.3,11.5
		c12.2-6.9,14.4-11.1,14.5-13.1c0-0.4,0.1-1.6-2.2-3.4C228.6,28.4,227.3,28.1,225.9,28.1z"/>
</g>
<g>
	<rect x="163.4" y="50.4" fill="#FDFDFD" width="39.7" height="18.5"/>
	<path fill="#FDFDFD" d="M203.1,57.5l-5.6-2.9C187,49.1,174.8,41.7,174.1,33c-0.2-2.6,0.5-6.4,5.1-9.8c2.1-1.5,4.7-2.4,7.8-2.4
		c6.8,0,14.7,4.2,15.8,12.1c0.4,3,0.5,16,0.5,18.6L203.1,57.5z M186.9,28.1c-1.4,0-2.6,0.3-3.4,0.9c-2.3,1.8-2.2,3-2.2,3.4
		c0.2,2,2.4,6.1,14.6,13.1c-0.1-5-0.2-10.2-0.4-11.5C195,30.3,190.6,28.1,186.9,28.1z"/>
</g>
<rect x="90.7" y="65.3" fill="#FDFDFD" width="39.9" height="6.8"/>
<rect x="90.7" y="83" fill="#FDFDFD" width="39.9" height="6.8"/>
</svg>
