<?xml version="1.0" encoding="utf-8"?>
<!-- Generator: Adobe Illustrator 17.1.0, SVG Export Plug-In . SVG Version: 6.00 Build 0)  -->
<!DOCTYPE svg PUBLIC "-//W3C//DTD SVG 1.1//EN" "http://www.w3.org/Graphics/SVG/1.1/DTD/svg11.dtd">
<svg version="1.1" id="Calque_1" xmlns="http://www.w3.org/2000/svg" xmlns:xlink="http://www.w3.org/1999/xlink" x="0px" y="0px"
	 viewBox="0 0 75 75" enable-background="new 0 0 75 75" xml:space="preserve">
<path fill="#FDFDFD" d="M52.3,14.6c0-2.4-0.4-4.5-1.3-6.4c-0.9-1.8-2-3.3-3.4-4.6c-1.4-1.2-3-2.1-4.8-2.7C41.1,0.3,39.3,0,37.5,0
	s-3.6,0.3-5.3,0.9c-1.8,0.6-3.4,1.5-4.8,2.7C26,4.8,24.9,6.4,24,8.2c-0.9,1.9-1.3,4-1.3,6.4V38h8.8V14.6c0-2.1,0.6-3.6,1.8-4.6
	c1.2-1,2.6-1.5,4.2-1.5s3,0.5,4.2,1.5c1.2,1,1.8,2.5,1.8,4.6v26.7c0,2.1-0.6,3.6-1.8,4.6c-1.2,1-2.6,1.5-4.2,1.5
	c-1.6,0-3-0.5-4.2-1.5c-0.1-0.1-0.1-0.1-0.2-0.2v14.4H42v-4.9c0.3-0.1,0.6-0.2,0.9-0.3c1.8-0.6,3.4-1.5,4.8-2.7
	c1.4-1.2,2.6-2.7,3.4-4.6c0.9-1.8,1.3-3.9,1.3-6.4V14.6z"/>
<rect x="33.1" y="66.1" fill="#FDFDFD" width="8.8" height="8.8"/>
</svg>
