<?xml version="1.0" encoding="utf-8"?>
<!-- Generator: Adobe Illustrator 17.1.0, SVG Export Plug-In . SVG Version: 6.00 Build 0)  -->
<!DOCTYPE svg PUBLIC "-//W3C//DTD SVG 1.1//EN" "http://www.w3.org/Graphics/SVG/1.1/DTD/svg11.dtd">
<svg version="1.1" id="Calque_1" xmlns="http://www.w3.org/2000/svg" xmlns:xlink="http://www.w3.org/1999/xlink" x="0px" y="0px"
	 viewBox="0 0 100 70" enable-background="new 0 0 100 70" xml:space="preserve">
<g>
	<g>
		<polygon fill="#15ED87" points="34.6,1.7 42.5,1.7 53.2,31.1 53.3,31.1 63.9,1.7 71.9,1.7 71.9,57.3 63.6,57.3 63.6,23.5 
			63.5,23.5 55.3,47.4 51.1,47.4 43,23.5 42.8,23.5 42.8,57.3 34.6,57.3 		"/>
		<polygon fill="#15ED87" points="75.2,1.7 99.9,1.7 99.9,9.2 83.5,9.2 83.5,25.5 97.7,25.5 97.7,33 83.5,33 83.5,49.3 99.9,49.3 
			99.9,57.3 75.2,57.3 		"/>
	</g>
	<g>
		<path fill="#FFFFFF" d="M27.8,13.6c0-2.2-0.4-4.2-1.2-5.9c-0.8-1.7-1.9-3.1-3.2-4.3c-1.3-1.1-2.8-2-4.5-2.5
			c-1.7-0.6-3.3-0.9-5-0.9c-1.7,0-3.3,0.3-5,0.9C7.2,1.4,5.7,2.3,4.4,3.4C3.1,4.5,2,5.9,1.2,7.6C0.4,9.4,0,11.3,0,13.6v21.9h8.3
			V13.6c0-1.9,0.6-3.3,1.7-4.3C11,8.4,12.4,8,13.9,8c1.5,0,2.8,0.5,3.9,1.4c1.1,0.9,1.7,2.3,1.7,4.3v24.9c0,1.9-0.6,3.3-1.7,4.3
			c-1.1,0.9-2.4,1.4-3.9,1.4c-1.5,0-2.8-0.5-3.9-1.4c-0.1-0.1-0.1-0.1-0.2-0.2l0,13.5H18v-4.5c0.3-0.1,0.6-0.2,0.8-0.3
			c1.7-0.6,3.1-1.4,4.5-2.5c1.3-1.1,2.4-2.5,3.2-4.3c0.8-1.7,1.2-3.7,1.2-5.9L27.8,13.6z"/>
		<rect x="9.8" y="61.7" fill="#FFFFFF" width="8.3" height="8.3"/>
	</g>
</g>
</svg>
