<?xml version="1.0" encoding="utf-8"?>
<!-- Generator: Adobe Illustrator 17.1.0, SVG Export Plug-In . SVG Version: 6.00 Build 0)  -->
<!DOCTYPE svg PUBLIC "-//W3C//DTD SVG 1.1//EN" "http://www.w3.org/Graphics/SVG/1.1/DTD/svg11.dtd">
<svg version="1.1" id="Calque_1" xmlns="http://www.w3.org/2000/svg" xmlns:xlink="http://www.w3.org/1999/xlink" x="0px" y="0px"
	 viewBox="0 0 400 102.5" enable-background="new 0 0 400 102.5" xml:space="preserve">
<g>
	<rect x="27.5" y="90.4" fill="#FFFFFF" width="12.1" height="12.1"/>
	<path fill="#FFFFFF" d="M40.6,19.9c0-3.3-0.6-6.2-1.8-8.7c-1.2-2.5-2.8-4.6-4.7-6.2c-1.9-1.6-4.1-2.9-6.5-3.7
		C25.2,0.4,22.8,0,20.3,0c-2.5,0-4.9,0.4-7.3,1.3C10.6,2.1,8.4,3.3,6.5,5C4.5,6.6,3,8.7,1.8,11.2C0.6,13.7,0,16.6,0,19.9l0,35.6
		h12.1V19.9c0-2.8,0.8-4.9,2.4-6.2c1.6-1.3,3.5-2,5.8-2c2.2,0,4.1,0.7,5.8,2c1.6,1.3,2.4,3.4,2.4,6.2v36.5c0,2.8-0.8,4.9-2.4,6.2
		c-1.6,1.3-3.5,2-5.8,2c-2.2,0-6.2,0-6.2,0L25.6,82h14.2c0,0-4-5.8-6.6-9.9c0.4-0.3,0.7-0.5,1.1-0.8c1.9-1.6,3.5-3.7,4.7-6.2
		c1.2-2.5,1.8-5.4,1.8-8.7V19.9z"/>
	<path fill="#FFFFFF" d="M82.8,57.7c0,2.4-0.4,4.7-1.3,6.7c-0.9,2.1-2.1,3.9-3.7,5.4c-1.6,1.5-3.4,2.8-5.4,3.7
		c-2.1,0.9-4.3,1.3-6.6,1.3c-2.3,0-4.6-0.4-6.6-1.3c-2.1-0.9-3.9-2.1-5.4-3.7c-1.6-1.6-2.8-3.4-3.7-5.4c-0.9-2.1-1.3-4.3-1.3-6.7
		V0.6h10.5v56c0,2.6,0.6,4.5,1.9,5.8c1.2,1.2,2.8,1.9,4.7,1.9c1.9,0,3.4-0.6,4.6-1.9c1.2-1.2,1.9-3.2,1.9-5.8v-56h10.5V57.7z"/>
	<path fill="#FFFFFF" d="M92.3,0.6h31.4v9.9h-20.9v21.6H121v9.9h-18.2v21.6h20.9v10.5H92.3V0.6z"/>
	<path fill="#FFFFFF" d="M165.3,21.8h-10.5v-2.4c0-2.4-0.6-4.5-1.7-6.3c-1.1-1.8-3-2.6-5.7-2.6c-1.4,0-2.6,0.3-3.6,0.8
		c-0.9,0.6-1.6,1.3-2.2,2.1c-0.5,0.9-0.9,1.9-1.1,3c-0.2,1.1-0.3,2.3-0.3,3.6c0,1.4,0.1,2.7,0.2,3.7c0.1,1,0.4,1.9,0.8,2.6
		c0.4,0.7,1,1.4,1.8,1.9c0.8,0.6,1.9,1.1,3.2,1.7l8.1,3.2c2.3,0.9,4.2,1.9,5.7,3.1c1.4,1.2,2.6,2.6,3.4,4.2c0.8,1.6,1.3,3.5,1.6,5.6
		c0.3,2.1,0.4,4.5,0.4,7.2c0,3.1-0.3,6-0.9,8.6c-0.6,2.7-1.6,4.9-3.1,6.8c-1.4,1.9-3.3,3.4-5.6,4.5c-2.3,1.1-5.2,1.7-8.6,1.7
		c-2.6,0-4.9-0.4-7.1-1.3c-2.2-0.9-4.1-2.1-5.7-3.7c-1.6-1.6-2.8-3.4-3.8-5.5c-0.9-2.1-1.4-4.4-1.4-6.9v-3.9h10.5v3.3
		c0,1.9,0.6,3.7,1.7,5.2c1.1,1.5,3.1,2.3,5.7,2.3c1.8,0,3.2-0.3,4.2-0.8c1-0.5,1.8-1.2,2.3-2.2c0.5-0.9,0.8-2.1,1-3.5
		c0.1-1.4,0.2-2.9,0.2-4.5c0-1.9-0.1-3.5-0.2-4.8c-0.1-1.2-0.4-2.2-0.9-3c-0.4-0.8-1.1-1.4-1.9-1.9c-0.8-0.5-1.8-1-3.2-1.5l-7.5-3.1
		c-4.5-1.9-7.6-4.3-9.2-7.4c-1.5-3.1-2.3-6.9-2.3-11.5c0-2.8,0.4-5.4,1.1-7.9c0.8-2.5,1.9-4.6,3.4-6.4c1.5-1.8,3.4-3.2,5.6-4.3
		c2.3-1.1,4.9-1.6,8-1.6c2.6,0,5,0.5,7.2,1.4c2.2,1,4,2.2,5.6,3.8c1.5,1.6,2.7,3.4,3.6,5.3c0.8,2,1.2,4,1.2,6V21.8z"/>
	<path fill="#FFFFFF" d="M181.6,10.5h-12.2V0.6h34.9v9.9h-12.2v63.7h-10.5V10.5z"/>
	<path fill="#FFFFFF" d="M210.2,0.6h10.5v73.6h-10.5V0.6z"/>
	<path fill="#FFFFFF" d="M229.6,18c0-3,0.5-5.6,1.5-7.9c1-2.3,2.4-4.2,4.1-5.6c1.7-1.5,3.6-2.6,5.7-3.4c2.1-0.8,4.2-1.1,6.4-1.1
		c2.1,0,4.2,0.4,6.3,1.1c2.1,0.8,4,1.9,5.7,3.4c1.7,1.5,3.1,3.4,4.1,5.6c1,2.3,1.6,4.9,1.6,7.9v38.9c0,3-0.5,5.7-1.6,7.9
		c-1,2.2-2.4,4.1-4.1,5.6c-1.7,1.5-3.6,2.6-5.7,3.4c-2.1,0.8-4.2,1.1-6.3,1.1c-2.1,0-4.3-0.4-6.4-1.1c-2.1-0.8-4-1.9-5.7-3.4
		c-1.7-1.5-3-3.3-4.1-5.6c-1-2.2-1.5-4.9-1.5-7.9V18z M240.1,56.8c0,2.5,0.7,4.4,2.1,5.6c1.4,1.2,3.1,1.8,5,1.8c1.9,0,3.6-0.6,5-1.8
		c1.4-1.2,2.1-3.1,2.1-5.6V18c0-2.5-0.7-4.4-2.1-5.6c-1.4-1.2-3.1-1.8-5-1.8c-1.9,0-3.6,0.6-5,1.8c-1.4,1.2-2.1,3.1-2.1,5.6V56.8z"
		/>
	<path fill="#FFFFFF" d="M273.6,0.6h10.1L299.6,45h0.2V0.6h10.5v73.6h-9.9L284.3,30h-0.2v44.2h-10.5V0.6z"/>
	<path fill="#FFFFFF" d="M317.4,0.6h10.1l13.5,39h0.2l13.4-39h10.2v73.6h-10.5V29.5h-0.2l-10.4,31.6h-5.3l-10.3-31.6h-0.2v44.7
		h-10.5V0.6z"/>
	<path fill="#FFFFFF" d="M368.9,0.6h31.4v9.9h-20.9v21.6h18.2v9.9h-18.2v21.6h20.9v10.5h-31.4V0.6z"/>
</g>
</svg>
