<?xml version="1.0" encoding="utf-8"?>
<!-- Generator: Adobe Illustrator 17.1.0, SVG Export Plug-In . SVG Version: 6.00 Build 0)  -->
<!DOCTYPE svg PUBLIC "-//W3C//DTD SVG 1.1//EN" "http://www.w3.org/Graphics/SVG/1.1/DTD/svg11.dtd">
<svg version="1.1" id="Calque_1" xmlns="http://www.w3.org/2000/svg" xmlns:xlink="http://www.w3.org/1999/xlink" x="0px" y="0px"
	 viewBox="0 0 250 58.1" enable-background="new 0 0 250 58.1" xml:space="preserve">
<g>
	<path fill="#FDFDFD" d="M49.7,37.2c0,1.5-0.3,2.9-0.9,4.2c-0.6,1.3-1.4,2.4-2.4,3.4c-1,1-2.2,1.7-3.5,2.3c-1.3,0.6-2.8,0.8-4.3,0.8
		c-1.5,0-3-0.3-4.3-0.8c-1.3-0.6-2.5-1.3-3.5-2.3c-1-1-1.8-2.1-2.4-3.4c-0.6-1.3-0.9-2.7-0.9-4.2V1.4h6.9v35.1
		c0,1.6,0.4,2.8,1.2,3.6c0.8,0.8,1.8,1.2,3,1.2c1.2,0,2.2-0.4,3-1.2c0.8-0.8,1.2-2,1.2-3.6V1.4h6.9V37.2z"/>
	<polygon fill="#FDFDFD" points="54.5,1.4 75,1.4 75,7.6 61.4,7.6 61.4,21.2 73.3,21.2 73.3,27.4 61.4,27.4 61.4,40.9 75,40.9 
		75,47.5 54.5,47.5 	"/>
	<path fill="#FDFDFD" d="M101.1,14.7h-6.9v-1.5c0-1.5-0.4-2.8-1.1-3.9c-0.7-1.1-2-1.7-3.7-1.7c-0.9,0-1.7,0.2-2.3,0.5
		c-0.6,0.3-1.1,0.8-1.4,1.3c-0.3,0.5-0.6,1.2-0.7,1.9c-0.1,0.7-0.2,1.5-0.2,2.2c0,0.9,0,1.7,0.1,2.3c0.1,0.6,0.2,1.2,0.5,1.6
		c0.3,0.5,0.7,0.9,1.2,1.2c0.5,0.3,1.2,0.7,2.1,1l5.3,2c1.5,0.6,2.8,1.2,3.7,2c0.9,0.8,1.7,1.6,2.2,2.7c0.5,1,0.9,2.2,1,3.5
		c0.2,1.3,0.3,2.8,0.3,4.5c0,1.9-0.2,3.7-0.6,5.4c-0.4,1.7-1.1,3.1-2,4.3c-0.9,1.2-2.1,2.1-3.7,2.8c-1.5,0.7-3.4,1-5.6,1
		c-1.7,0-3.2-0.3-4.6-0.8c-1.4-0.6-2.7-1.3-3.7-2.3c-1-1-1.9-2.1-2.5-3.5c-0.6-1.3-0.9-2.8-0.9-4.3v-2.5h6.9v2.1
		c0,1.2,0.4,2.3,1.1,3.3c0.7,1,2,1.5,3.7,1.5c1.2,0,2.1-0.2,2.7-0.5c0.7-0.3,1.1-0.8,1.5-1.4c0.3-0.6,0.5-1.3,0.6-2.2
		c0.1-0.9,0.1-1.8,0.1-2.8c0-1.2,0-2.2-0.1-3c-0.1-0.8-0.3-1.4-0.6-1.9c-0.3-0.5-0.7-0.9-1.2-1.2c-0.5-0.3-1.2-0.6-2.1-1l-4.9-1.9
		c-3-1.2-4.9-2.7-6-4.6c-1-1.9-1.5-4.3-1.5-7.2c0-1.7,0.2-3.4,0.7-4.9c0.5-1.6,1.2-2.9,2.2-4c1-1.1,2.2-2,3.7-2.7
		c1.5-0.7,3.2-1,5.2-1c1.7,0,3.3,0.3,4.7,0.9c1.4,0.6,2.6,1.4,3.6,2.4c1,1,1.8,2.1,2.3,3.3c0.5,1.2,0.8,2.5,0.8,3.8V14.7z"/>
	<polygon fill="#FDFDFD" points="110.7,7.6 102.7,7.6 102.7,1.4 125.5,1.4 125.5,7.6 117.6,7.6 117.6,47.5 110.7,47.5 	"/>
	<rect x="128.7" y="1.4" fill="#FDFDFD" width="6.9" height="46.1"/>
	<path fill="#FDFDFD" d="M140.2,12.3c0-1.9,0.3-3.5,1-4.9c0.7-1.4,1.6-2.6,2.7-3.5c1.1-0.9,2.3-1.6,3.7-2.1c1.4-0.5,2.7-0.7,4.1-0.7
		c1.4,0,2.8,0.2,4.1,0.7c1.4,0.5,2.6,1.2,3.7,2.1c1.1,0.9,2,2.1,2.7,3.5c0.7,1.4,1,3.1,1,4.9v24.3c0,1.9-0.3,3.5-1,5
		c-0.7,1.4-1.6,2.6-2.7,3.5c-1.1,0.9-2.3,1.6-3.7,2.1c-1.4,0.5-2.8,0.7-4.1,0.7c-1.4,0-2.8-0.2-4.1-0.7c-1.4-0.5-2.6-1.2-3.7-2.1
		c-1.1-0.9-2-2.1-2.7-3.5c-0.7-1.4-1-3.1-1-5V12.3z M147.1,36.6c0,1.6,0.5,2.8,1.4,3.5c0.9,0.8,2,1.1,3.3,1.1c1.3,0,2.3-0.4,3.3-1.1
		c0.9-0.8,1.4-1.9,1.4-3.5V12.3c0-1.6-0.5-2.8-1.4-3.5c-0.9-0.8-2-1.1-3.3-1.1c-1.3,0-2.3,0.4-3.3,1.1c-0.9,0.8-1.4,1.9-1.4,3.5
		V36.6z"/>
	<polygon fill="#FDFDFD" points="167.4,1.4 174,1.4 184.4,29.2 184.5,29.2 184.5,1.4 191.4,1.4 191.4,47.5 184.9,47.5 174.4,19.8 
		174.3,19.8 174.3,47.5 167.4,47.5 	"/>
	<polygon fill="#14E985" points="196,1.4 202.6,1.4 211.4,25.8 211.5,25.8 220.3,1.4 227,1.4 227,47.5 220.1,47.5 220.1,19.5 
		220,19.5 213.2,39.3 209.7,39.3 203,19.5 202.9,19.5 202.9,47.5 196,47.5 	"/>
	<polygon fill="#14E985" points="228.2,1.4 248.7,1.4 248.7,7.6 235.1,7.6 235.1,21.2 247,21.2 247,27.4 235.1,27.4 235.1,40.9 
		248.7,40.9 248.7,47.5 228.2,47.5 	"/>
	<path fill="#14E985" d="M23,11.3c0-1.9-0.3-3.5-1-4.9c-0.7-1.4-1.6-2.6-2.7-3.5c-1.1-0.9-2.3-1.6-3.7-2.1C14.3,0.2,12.9,0,11.5,0
		c-1.4,0-2.8,0.2-4.1,0.7C6,1.2,4.8,1.9,3.7,2.8C2.6,3.7,1.7,4.9,1,6.3c-0.7,1.4-1,3.1-1,4.9l0,18.2h6.9V11.3c0-1.6,0.5-2.8,1.4-3.5
		c0.9-0.8,2-1.1,3.3-1.1c1.3,0,2.3,0.4,3.3,1.1c0.9,0.8,1.4,1.9,1.4,3.5V32c0,1.6-0.5,2.8-1.4,3.5c-0.9,0.8-2,1.1-3.3,1.1
		c-1.3,0-2.3-0.4-3.3-1.1c-0.1,0-0.1-0.1-0.2-0.2l0,11.2H15v-3.8c0.2-0.1,0.5-0.1,0.7-0.2c1.4-0.5,2.6-1.2,3.7-2.1
		c1.1-0.9,2-2.1,2.7-3.5c0.7-1.4,1-3.1,1-4.9L23,11.3z"/>
	<rect x="8.1" y="51.2" fill="#14E985" width="6.9" height="6.9"/>
</g>
</svg>
